<svg xmlns="http://www.w3.org/2000/svg">
<line x1="600.000" y1="600.000" x2="600.000" y2="630.000" style="stroke:black;stroke-width:1.5" />
<line x1="600.000" y1="630.000" x2="630.000" y2="630.000" style="stroke:black;stroke-width:1.5" />
<line x1="630.000" y1="630.000" x2="630.000" y2="660.000" style="stroke:black;stroke-width:1.5" />
<line x1="630.000" y1="660.000" x2="600.000" y2="660.000" style="stroke:black;stroke-width:1.5" />
<line x1="600.000" y1="660.000" x2="570.000" y2="660.000" style="stroke:black;stroke-width:1.5" />
<line x1="570.000" y1="660.000" x2="570.000" y2="690.000" style="stroke:black;stroke-width:1.5" />
<line x1="570.000" y1="690.000" x2="600.000" y2="690.000" style="stroke:black;stroke-width:1.5" />
<line x1="600.000" y1="690.000" x2="600.000" y2="720.000" style="stroke:black;stroke-width:1.5" />
<line x1="600.000" y1="720.000" x2="630.000" y2="720.000" style="stroke:black;stroke-width:1.5" />
<line x1="630.000" y1="720.000" x2="630.000" y2="690.000" style="stroke:black;stroke-width:1.5" />
<line x1="630.000" y1="690.000" x2="660.000" y2="690.000" style="stroke:black;stroke-width:1.5" />
<line x1="660.000" y1="690.000" x2="660.000" y2="720.000" style="stroke:black;stroke-width:1.5" />
<line x1="660.000" y1="720.000" x2="660.000" y2="750.000" style="stroke:black;stroke-width:1.5" />
<line x1="660.000" y1="750.000" x2="690.000" y2="750.000" style="stroke:black;stroke-width:1.5" />
<line x1="690.000" y1="750.000" x2="690.000" y2="720.000" style="stroke:black;stroke-width:1.5" />
<line x1="690.000" y1="720.000" x2="720.000" y2="720.000" style="stroke:black;stroke-width:1.5" />
<line x1="720.000" y1="720.000" x2="720.000" y2="750.000" style="stroke:black;stroke-width:1.5" />
<line x1="720.000" y1="750.000" x2="750.000" y2="750.000" style="stroke:black;stroke-width:1.5" />
<line x1="750.000" y1="750.000" x2="750.000" y2="780.000" style="stroke:black;stroke-width:1.5" />
<line x1="750.000" y1="780.000" x2="720.000" y2="780.000" style="stroke:black;stroke-width:1.5" />
<line x1="720.000" y1="780.000" x2="690.000" y2="780.000" style="stroke:black;stroke-width:1.5" />
<line x1="690.000" y1="780.000" x2="690.000" y2="810.000" style="stroke:black;stroke-width:1.5" />
<line x1="690.000" y1="810.000" x2="720.000" y2="810.000" style="stroke:black;stroke-width:1.5" />
<line x1="720.000" y1="810.000" x2="720.000" y2="840.000" style="stroke:black;stroke-width:1.5" />
<line x1="720.000" y1="840.000" x2="690.000" y2="840.000" style="stroke:black;stroke-width:1.5" />
<line x1="690.000" y1="840.000" x2="690.000" y2="870.000" style="stroke:black;stroke-width:1.5" />
<line x1="690.000" y1="870.000" x2="660.000" y2="870.000" style="stroke:black;stroke-width:1.5" />
<line x1="660.000" y1="870.000" x2="660.000" y2="840.000" style="stroke:black;stroke-width:1.5" />
<line x1="660.000" y1="840.000" x2="660.000" y2="810.000" style="stroke:black;stroke-width:1.5" />
<line x1="660.000" y1="810.000" x2="630.000" y2="810.000" style="stroke:black;stroke-width:1.5" />
<line x1="630.000" y1="810.000" x2="630.000" y2="840.000" style="stroke:black;stroke-width:1.5" />
<line x1="630.000" y1="840.000" x2="600.000" y2="840.000" style="stroke:black;stroke-width:1.5" />
<line x1="600.000" y1="840.000" x2="570.000" y2="840.000" style="stroke:black;stroke-width:1.5" />
<line x1="570.000" y1="840.000" x2="570.000" y2="870.000" style="stroke:black;stroke-width:1.5" />
<line x1="570.000" y1="870.000" x2="540.000" y2="870.000" style="stroke:black;stroke-width:1.5" />
<line x1="540.000" y1="870.000" x2="540.000" y2="840.000" style="stroke:black;stroke-width:1.5" />
<line x1="540.000" y1="840.000" x2="540.000" y2="810.000" style="stroke:black;stroke-width:1.5" />
<line x1="540.000" y1="810.000" x2="510.000" y2="810.000" style="stroke:black;stroke-width:1.5" />
<line x1="510.000" y1="810.000" x2="510.000" y2="840.000" style="stroke:black;stroke-width:1.5" />
<line x1="510.000" y1="840.000" x2="480.000" y2="840.000" style="stroke:black;stroke-width:1.5" />
<line x1="480.000" y1="840.000" x2="480.000" y2="870.000" style="stroke:black;stroke-width:1.5" />
<line x1="480.000" y1="870.000" x2="510.000" y2="870.000" style="stroke:black;stroke-width:1.5" />
<line x1="510.000" y1="870.000" x2="510.000" y2="900.000" style="stroke:black;stroke-width:1.5" />
<line x1="510.000" y1="900.000" x2="480.000" y2="900.000" style="stroke:black;stroke-width:1.5" />
<line x1="480.000" y1="900.000" x2="450.000" y2="900.000" style="stroke:black;stroke-width:1.5" />
<line x1="450.000" y1="900.000" x2="450.000" y2="930.000" style="stroke:black;stroke-width:1.5" />
<line x1="450.000" y1="930.000" x2="480.000" y2="930.000" style="stroke:black;stroke-width:1.5" />
<line x1="480.000" y1="930.000" x2="480.000" y2="960.000" style="stroke:black;stroke-width:1.5" />
<line x1="480.000" y1="960.000" x2="510.000" y2="960.000" style="stroke:black;stroke-width:1.5" />
<line x1="510.000" y1="960.000" x2="510.000" y2="930.000" style="stroke:black;stroke-width:1.5" />
<line x1="510.000" y1="930.000" x2="540.000" y2="930.000" style="stroke:black;stroke-width:1.5" />
<line x1="540.000" y1="930.000" x2="540.000" y2="960.000" style="stroke:black;stroke-width:1.5" />
<line x1="540.000" y1="960.000" x2="540.000" y2="990.000" style="stroke:black;stroke-width:1.5" />
<line x1="540.000" y1="990.000" x2="570.000" y2="990.000" style="stroke:black;stroke-width:1.5" />
<line x1="570.000" y1="990.000" x2="570.000" y2="960.000" style="stroke:black;stroke-width:1.5" />
<line x1="570.000" y1="960.000" x2="600.000" y2="960.000" style="stroke:black;stroke-width:1.5" />
<line x1="600.000" y1="960.000" x2="600.000" y2="990.000" style="stroke:black;stroke-width:1.5" />
<line x1="600.000" y1="990.000" x2="630.000" y2="990.000" style="stroke:black;stroke-width:1.5" />
<line x1="630.000" y1="990.000" x2="630.000" y2="1020.000" style="stroke:black;stroke-width:1.5" />
<line x1="630.000" y1="1020.000" x2="600.000" y2="1020.000" style="stroke:black;stroke-width:1.5" />
<line x1="600.000" y1="1020.000" x2="570.000" y2="1020.000" style="stroke:black;stroke-width:1.5" />
<line x1="570.000" y1="1020.000" x2="570.000" y2="1050.000" style="stroke:black;stroke-width:1.5" />
<line x1="570.000" y1="1050.000" x2="600.000" y2="1050.000" style="stroke:black;stroke-width:1.5" />
<line x1="600.000" y1="1050.000" x2="600.000" y2="1080.000" style="stroke:black;stroke-width:1.5" />
<line x1="600.000" y1="1080.000" x2="630.000" y2="1080.000" style="stroke:black;stroke-width:1.5" />
<line x1="630.000" y1="1080.000" x2="630.000" y2="1050.000" style="stroke:black;stroke-width:1.5" />
<line x1="630.000" y1="1050.000" x2="660.000" y2="1050.000" style="stroke:black;stroke-width:1.5" />
<line x1="660.000" y1="1050.000" x2="660.000" y2="1080.000" style="stroke:black;stroke-width:1.5" />
<line x1="660.000" y1="1080.000" x2="660.000" y2="1110.000" style="stroke:black;stroke-width:1.5" />
<line x1="660.000" y1="1110.000" x2="690.000" y2="1110.000" style="stroke:black;stroke-width:1.5" />
<line x1="690.000" y1="1110.000" x2="690.000" y2="1080.000" style="stroke:black;stroke-width:1.5" />
<line x1="690.000" y1="1080.000" x2="720.000" y2="1080.000" style="stroke:black;stroke-width:1.5" />
<line x1="720.000" y1="1080.000" x2="720.000" y2="1050.000" style="stroke:black;stroke-width:1.5" />
<line x1="720.000" y1="1050.000" x2="690.000" y2="1050.000" style="stroke:black;stroke-width:1.5" />
<line x1="690.000" y1="1050.000" x2="690.000" y2="1020.000" style="stroke:black;stroke-width:1.5" />
<line x1="690.000" y1="1020.000" x2="720.000" y2="1020.000" style="stroke:black;stroke-width:1.5" />
<line x1="720.000" y1="1020.000" x2="750.000" y2="1020.000" style="stroke:black;stroke-width:1.5" />
<line x1="750.000" y1="1020.000" x2="750.000" y2="990.000" style="stroke:black;stroke-width:1.5" />
<line x1="750.000" y1="990.000" x2="720.000" y2="990.000" style="stroke:black;stroke-width:1.5" />
<line x1="720.000" y1="990.000" x2="720.000" y2="960.000" style="stroke:black;stroke-width:1.5" />
<line x1="720.000" y1="960.000" x2="750.000" y2="960.000" style="stroke:black;stroke-width:1.5" />
<line x1="750.000" y1="960.000" x2="750.000" y2="930.000" style="stroke:black;stroke-width:1.5" />
<line x1="750.000" y1="930.000" x2="780.000" y2="930.000" style="stroke:black;stroke-width:1.5" />
<line x1="780.000" y1="930.000" x2="780.000" y2="960.000" style="stroke:black;stroke-width:1.5" />
<line x1="780.000" y1="960.000" x2="780.000" y2="990.000" style="stroke:black;stroke-width:1.5" />
<line x1="780.000" y1="990.000" x2="810.000" y2="990.000" style="stroke:black;stroke-width:1.5" />
<line x1="810.000" y1="990.000" x2="810.000" y2="960.000" style="stroke:black;stroke-width:1.5" />
<line x1="810.000" y1="960.000" x2="840.000" y2="960.000" style="stroke:black;stroke-width:1.5" />
<line x1="840.000" y1="960.000" x2="840.000" y2="990.000" style="stroke:black;stroke-width:1.5" />
<line x1="840.000" y1="990.000" x2="870.000" y2="990.000" style="stroke:black;stroke-width:1.5" />
<line x1="870.000" y1="990.000" x2="870.000" y2="1020.000" style="stroke:black;stroke-width:1.5" />
<line x1="870.000" y1="1020.000" x2="840.000" y2="1020.000" style="stroke:black;stroke-width:1.5" />
<line x1="840.000" y1="1020.000" x2="810.000" y2="1020.000" style="stroke:black;stroke-width:1.5" />
<line x1="810.000" y1="1020.000" x2="810.000" y2="1050.000" style="stroke:black;stroke-width:1.5" />
<line x1="810.000" y1="1050.000" x2="840.000" y2="1050.000" style="stroke:black;stroke-width:1.5" />
<line x1="840.000" y1="1050.000" x2="840.000" y2="1080.000" style="stroke:black;stroke-width:1.5" />
<line x1="840.000" y1="1080.000" x2="840.000" y2="1110.000" style="stroke:black;stroke-width:1.5" />
<line x1="840.000" y1="1110.000" x2="870.000" y2="1110.000" style="stroke:black;stroke-width:1.5" />
<line x1="870.000" y1="1110.000" x2="870.000" y2="1140.000" style="stroke:black;stroke-width:1.5" />
<line x1="870.000" y1="1140.000" x2="840.000" y2="1140.000" style="stroke:black;stroke-width:1.5" />
<line x1="840.000" y1="1140.000" x2="810.000" y2="1140.000" style="stroke:black;stroke-width:1.5" />
<line x1="810.000" y1="1140.000" x2="810.000" y2="1170.000" style="stroke:black;stroke-width:1.5" />
<line x1="810.000" y1="1170.000" x2="840.000" y2="1170.000" style="stroke:black;stroke-width:1.5" />
<line x1="840.000" y1="1170.000" x2="840.000" y2="1200.000" style="stroke:black;stroke-width:1.5" />
<line x1="840.000" y1="1200.000" x2="870.000" y2="1200.000" style="stroke:black;stroke-width:1.5" />
<line x1="870.000" y1="1200.000" x2="870.000" y2="1170.000" style="stroke:black;stroke-width:1.5" />
<line x1="870.000" y1="1170.000" x2="900.000" y2="1170.000" style="stroke:black;stroke-width:1.5" />
<line x1="900.000" y1="1170.000" x2="900.000" y2="1200.000" style="stroke:black;stroke-width:1.5" />
<line x1="900.000" y1="1200.000" x2="900.000" y2="1230.000" style="stroke:black;stroke-width:1.5" />
<line x1="900.000" y1="1230.000" x2="930.000" y2="1230.000" style="stroke:black;stroke-width:1.5" />
<line x1="930.000" y1="1230.000" x2="930.000" y2="1200.000" style="stroke:black;stroke-width:1.5" />
<line x1="930.000" y1="1200.000" x2="960.000" y2="1200.000" style="stroke:black;stroke-width:1.5" />
<line x1="960.000" y1="1200.000" x2="960.000" y2="1170.000" style="stroke:black;stroke-width:1.5" />
<line x1="960.000" y1="1170.000" x2="930.000" y2="1170.000" style="stroke:black;stroke-width:1.5" />
<line x1="930.000" y1="1170.000" x2="930.000" y2="1140.000" style="stroke:black;stroke-width:1.5" />
<line x1="930.000" y1="1140.000" x2="960.000" y2="1140.000" style="stroke:black;stroke-width:1.5" />
<line x1="960.000" y1="1140.000" x2="990.000" y2="1140.000" style="stroke:black;stroke-width:1.5" />
<line x1="990.000" y1="1140.000" x2="990.000" y2="1110.000" style="stroke:black;stroke-width:1.5" />
<line x1="990.000" y1="1110.000" x2="960.000" y2="1110.000" style="stroke:black;stroke-width:1.5" />
<line x1="960.000" y1="1110.000" x2="960.000" y2="1080.000" style="stroke:black;stroke-width:1.5" />
<line x1="960.000" y1="1080.000" x2="990.000" y2="1080.000" style="stroke:black;stroke-width:1.5" />
<line x1="990.000" y1="1080.000" x2="990.000" y2="1050.000" style="stroke:black;stroke-width:1.5" />
<line x1="990.000" y1="1050.000" x2="1020.000" y2="1050.000" style="stroke:black;stroke-width:1.5" />
<line x1="1020.000" y1="1050.000" x2="1020.000" y2="1080.000" style="stroke:black;stroke-width:1.5" />
<line x1="1020.000" y1="1080.000" x2="1020.000" y2="1110.000" style="stroke:black;stroke-width:1.5" />
<line x1="1020.000" y1="1110.000" x2="1050.000" y2="1110.000" style="stroke:black;stroke-width:1.5" />
<line x1="1050.000" y1="1110.000" x2="1050.000" y2="1080.000" style="stroke:black;stroke-width:1.5" />
<line x1="1050.000" y1="1080.000" x2="1080.000" y2="1080.000" style="stroke:black;stroke-width:1.5" />
<line x1="1080.000" y1="1080.000" x2="1080.000" y2="1050.000" style="stroke:black;stroke-width:1.5" />
<line x1="1080.000" y1="1050.000" x2="1050.000" y2="1050.000" style="stroke:black;stroke-width:1.5" />
<line x1="1050.000" y1="1050.000" x2="1050.000" y2="1020.000" style="stroke:black;stroke-width:1.5" />
<line x1="1050.000" y1="1020.000" x2="1080.000" y2="1020.000" style="stroke:black;stroke-width:1.5" />
<line x1="1080.000" y1="1020.000" x2="1110.000" y2="1020.000" style="stroke:black;stroke-width:1.5" />
<line x1="1110.000" y1="1020.000" x2="1110.000" y2="990.000" style="stroke:black;stroke-width:1.5" />
<line x1="1110.000" y1="990.000" x2="1080.000" y2="990.000" style="stroke:black;stroke-width:1.5" />
<line x1="1080.000" y1="990.000" x2="1080.000" y2="960.000" style="stroke:black;stroke-width:1.5" />
<line x1="1080.000" y1="960.000" x2="1050.000" y2="960.000" style="stroke:black;stroke-width:1.5" />
<line x1="1050.000" y1="960.000" x2="1050.000" y2="990.000" style="stroke:black;stroke-width:1.5" />
<line x1="1050.000" y1="990.000" x2="1020.000" y2="990.000" style="stroke:black;stroke-width:1.5" />
<line x1="1020.000" y1="990.000" x2="1020.000" y2="960.000" style="stroke:black;stroke-width:1.5" />
<line x1="1020.000" y1="960.000" x2="1020.000" y2="930.000" style="stroke:black;stroke-width:1.5" />
<line x1="1020.000" y1="930.000" x2="990.000" y2="930.000" style="stroke:black;stroke-width:1.5" />
<line x1="990.000" y1="930.000" x2="990.000" y2="960.000" style="stroke:black;stroke-width:1.5" />
<line x1="990.000" y1="960.000" x2="960.000" y2="960.000" style="stroke:black;stroke-width:1.5" />
<line x1="960.000" y1="960.000" x2="960.000" y2="930.000" style="stroke:black;stroke-width:1.5" />
<line x1="960.000" y1="930.000" x2="930.000" y2="930.000" style="stroke:black;stroke-width:1.5" />
<line x1="930.000" y1="930.000" x2="930.000" y2="900.000" style="stroke:black;stroke-width:1.5" />
<line x1="930.000" y1="900.000" x2="960.000" y2="900.000" style="stroke:black;stroke-width:1.5" />
<line x1="960.000" y1="900.000" x2="990.000" y2="900.000" style="stroke:black;stroke-width:1.5" />
<line x1="990.000" y1="900.000" x2="990.000" y2="870.000" style="stroke:black;stroke-width:1.5" />
<line x1="990.000" y1="870.000" x2="960.000" y2="870.000" style="stroke:black;stroke-width:1.5" />
<line x1="960.000" y1="870.000" x2="960.000" y2="840.000" style="stroke:black;stroke-width:1.5" />
<line x1="960.000" y1="840.000" x2="990.000" y2="840.000" style="stroke:black;stroke-width:1.5" />
<line x1="990.000" y1="840.000" x2="990.000" y2="810.000" style="stroke:black;stroke-width:1.5" />
<line x1="990.000" y1="810.000" x2="1020.000" y2="810.000" style="stroke:black;stroke-width:1.5" />
<line x1="1020.000" y1="810.000" x2="1020.000" y2="840.000" style="stroke:black;stroke-width:1.5" />
<line x1="1020.000" y1="840.000" x2="1020.000" y2="870.000" style="stroke:black;stroke-width:1.5" />
<line x1="1020.000" y1="870.000" x2="1050.000" y2="870.000" style="stroke:black;stroke-width:1.5" />
<line x1="1050.000" y1="870.000" x2="1050.000" y2="840.000" style="stroke:black;stroke-width:1.5" />
<line x1="1050.000" y1="840.000" x2="1080.000" y2="840.000" style="stroke:black;stroke-width:1.5" />
<line x1="1080.000" y1="840.000" x2="1110.000" y2="840.000" style="stroke:black;stroke-width:1.5" />
<line x1="1110.000" y1="840.000" x2="1110.000" y2="810.000" style="stroke:black;stroke-width:1.5" />
<line x1="1110.000" y1="810.000" x2="1140.000" y2="810.000" style="stroke:black;stroke-width:1.5" />
<line x1="1140.000" y1="810.000" x2="1140.000" y2="840.000" style="stroke:black;stroke-width:1.5" />
<line x1="1140.000" y1="840.000" x2="1140.000" y2="870.000" style="stroke:black;stroke-width:1.5" />
<line x1="1140.000" y1="870.000" x2="1170.000" y2="870.000" style="stroke:black;stroke-width:1.5" />
<line x1="1170.000" y1="870.000" x2="1170.000" y2="840.000" style="stroke:black;stroke-width:1.5" />
<line x1="1170.000" y1="840.000" x2="1200.000" y2="840.000" style="stroke:black;stroke-width:1.5" />
<line x1="1200.000" y1="840.000" x2="1200.000" y2="810.000" style="stroke:black;stroke-width:1.5" />
<line x1="1200.000" y1="810.000" x2="1170.000" y2="810.000" style="stroke:black;stroke-width:1.5" />
<line x1="1170.000" y1="810.000" x2="1170.000" y2="780.000" style="stroke:black;stroke-width:1.5" />
<line x1="1170.000" y1="780.000" x2="1200.000" y2="780.000" style="stroke:black;stroke-width:1.5" />
<line x1="1200.000" y1="780.000" x2="1230.000" y2="780.000" style="stroke:black;stroke-width:1.5" />
<line x1="1230.000" y1="780.000" x2="1230.000" y2="750.000" style="stroke:black;stroke-width:1.5" />
<line x1="1230.000" y1="750.000" x2="1200.000" y2="750.000" style="stroke:black;stroke-width:1.5" />
<line x1="1200.000" y1="750.000" x2="1200.000" y2="720.000" style="stroke:black;stroke-width:1.5" />
<line x1="1200.000" y1="720.000" x2="1170.000" y2="720.000" style="stroke:black;stroke-width:1.5" />
<line x1="1170.000" y1="720.000" x2="1170.000" y2="750.000" style="stroke:black;stroke-width:1.5" />
<line x1="1170.000" y1="750.000" x2="1140.000" y2="750.000" style="stroke:black;stroke-width:1.5" />
<line x1="1140.000" y1="750.000" x2="1140.000" y2="720.000" style="stroke:black;stroke-width:1.5" />
<line x1="1140.000" y1="720.000" x2="1140.000" y2="690.000" style="stroke:black;stroke-width:1.5" />
<line x1="1140.000" y1="690.000" x2="1110.000" y2="690.000" style="stroke:black;stroke-width:1.5" />
<line x1="1110.000" y1="690.000" x2="1110.000" y2="720.000" style="stroke:black;stroke-width:1.5" />
<line x1="1110.000" y1="720.000" x2="1080.000" y2="720.000" style="stroke:black;stroke-width:1.5" />
<line x1="1080.000" y1="720.000" x2="1080.000" y2="690.000" style="stroke:black;stroke-width:1.5" />
<line x1="1080.000" y1="690.000" x2="1050.000" y2="690.000" style="stroke:black;stroke-width:1.5" />
<line x1="1050.000" y1="690.000" x2="1050.000" y2="660.000" style="stroke:black;stroke-width:1.5" />
<line x1="1050.000" y1="660.000" x2="1080.000" y2="660.000" style="stroke:black;stroke-width:1.5" />
<line x1="1080.000" y1="660.000" x2="1110.000" y2="660.000" style="stroke:black;stroke-width:1.5" />
<line x1="1110.000" y1="660.000" x2="1110.000" y2="630.000" style="stroke:black;stroke-width:1.5" />
<line x1="1110.000" y1="630.000" x2="1080.000" y2="630.000" style="stroke:black;stroke-width:1.5" />
<line x1="1080.000" y1="630.000" x2="1080.000" y2="600.000" style="stroke:black;stroke-width:1.5" />
<line x1="1080.000" y1="600.000" x2="1050.000" y2="600.000" style="stroke:black;stroke-width:1.5" />
<line x1="1050.000" y1="600.000" x2="1050.000" y2="630.000" style="stroke:black;stroke-width:1.5" />
<line x1="1050.000" y1="630.000" x2="1020.000" y2="630.000" style="stroke:black;stroke-width:1.5" />
<line x1="1020.000" y1="630.000" x2="1020.000" y2="600.000" style="stroke:black;stroke-width:1.5" />
<line x1="1020.000" y1="600.000" x2="1020.000" y2="570.000" style="stroke:black;stroke-width:1.5" />
<line x1="1020.000" y1="570.000" x2="990.000" y2="570.000" style="stroke:black;stroke-width:1.5" />
<line x1="990.000" y1="570.000" x2="990.000" y2="600.000" style="stroke:black;stroke-width:1.5" />
<line x1="990.000" y1="600.000" x2="960.000" y2="600.000" style="stroke:black;stroke-width:1.5" />
<line x1="960.000" y1="600.000" x2="960.000" y2="630.000" style="stroke:black;stroke-width:1.5" />
<line x1="960.000" y1="630.000" x2="990.000" y2="630.000" style="stroke:black;stroke-width:1.5" />
<line x1="990.000" y1="630.000" x2="990.000" y2="660.000" style="stroke:black;stroke-width:1.5" />
<line x1="990.000" y1="660.000" x2="960.000" y2="660.000" style="stroke:black;stroke-width:1.5" />
<line x1="960.000" y1="660.000" x2="930.000" y2="660.000" style="stroke:black;stroke-width:1.5" />
<line x1="930.000" y1="660.000" x2="930.000" y2="690.000" style="stroke:black;stroke-width:1.5" />
<line x1="930.000" y1="690.000" x2="960.000" y2="690.000" style="stroke:black;stroke-width:1.5" />
<line x1="960.000" y1="690.000" x2="960.000" y2="720.000" style="stroke:black;stroke-width:1.5" />
<line x1="960.000" y1="720.000" x2="930.000" y2="720.000" style="stroke:black;stroke-width:1.5" />
<line x1="930.000" y1="720.000" x2="930.000" y2="750.000" style="stroke:black;stroke-width:1.5" />
<line x1="930.000" y1="750.000" x2="900.000" y2="750.000" style="stroke:black;stroke-width:1.5" />
<line x1="900.000" y1="750.000" x2="900.000" y2="720.000" style="stroke:black;stroke-width:1.5" />
<line x1="900.000" y1="720.000" x2="900.000" y2="690.000" style="stroke:black;stroke-width:1.5" />
<line x1="900.000" y1="690.000" x2="870.000" y2="690.000" style="stroke:black;stroke-width:1.5" />
<line x1="870.000" y1="690.000" x2="870.000" y2="720.000" style="stroke:black;stroke-width:1.5" />
<line x1="870.000" y1="720.000" x2="840.000" y2="720.000" style="stroke:black;stroke-width:1.5" />
<line x1="840.000" y1="720.000" x2="840.000" y2="690.000" style="stroke:black;stroke-width:1.5" />
<line x1="840.000" y1="690.000" x2="810.000" y2="690.000" style="stroke:black;stroke-width:1.5" />
<line x1="810.000" y1="690.000" x2="810.000" y2="660.000" style="stroke:black;stroke-width:1.5" />
<line x1="810.000" y1="660.000" x2="840.000" y2="660.000" style="stroke:black;stroke-width:1.5" />
<line x1="840.000" y1="660.000" x2="870.000" y2="660.000" style="stroke:black;stroke-width:1.5" />
<line x1="870.000" y1="660.000" x2="870.000" y2="630.000" style="stroke:black;stroke-width:1.5" />
<line x1="870.000" y1="630.000" x2="840.000" y2="630.000" style="stroke:black;stroke-width:1.5" />
<line x1="840.000" y1="630.000" x2="840.000" y2="600.000" style="stroke:black;stroke-width:1.5" />
<line x1="840.000" y1="600.000" x2="840.000" y2="570.000" style="stroke:black;stroke-width:1.5" />
<line x1="840.000" y1="570.000" x2="810.000" y2="570.000" style="stroke:black;stroke-width:1.5" />
<line x1="810.000" y1="570.000" x2="810.000" y2="540.000" style="stroke:black;stroke-width:1.5" />
<line x1="810.000" y1="540.000" x2="840.000" y2="540.000" style="stroke:black;stroke-width:1.5" />
<line x1="840.000" y1="540.000" x2="870.000" y2="540.000" style="stroke:black;stroke-width:1.5" />
<line x1="870.000" y1="540.000" x2="870.000" y2="510.000" style="stroke:black;stroke-width:1.5" />
<line x1="870.000" y1="510.000" x2="840.000" y2="510.000" style="stroke:black;stroke-width:1.5" />
<line x1="840.000" y1="510.000" x2="840.000" y2="480.000" style="stroke:black;stroke-width:1.5" />
<line x1="840.000" y1="480.000" x2="810.000" y2="480.000" style="stroke:black;stroke-width:1.5" />
<line x1="810.000" y1="480.000" x2="810.000" y2="510.000" style="stroke:black;stroke-width:1.5" />
<line x1="810.000" y1="510.000" x2="780.000" y2="510.000" style="stroke:black;stroke-width:1.5" />
<line x1="780.000" y1="510.000" x2="780.000" y2="480.000" style="stroke:black;stroke-width:1.5" />
<line x1="780.000" y1="480.000" x2="780.000" y2="450.000" style="stroke:black;stroke-width:1.5" />
<line x1="780.000" y1="450.000" x2="750.000" y2="450.000" style="stroke:black;stroke-width:1.5" />
<line x1="750.000" y1="450.000" x2="750.000" y2="480.000" style="stroke:black;stroke-width:1.5" />
<line x1="750.000" y1="480.000" x2="720.000" y2="480.000" style="stroke:black;stroke-width:1.5" />
<line x1="720.000" y1="480.000" x2="720.000" y2="510.000" style="stroke:black;stroke-width:1.5" />
<line x1="720.000" y1="510.000" x2="750.000" y2="510.000" style="stroke:black;stroke-width:1.5" />
<line x1="750.000" y1="510.000" x2="750.000" y2="540.000" style="stroke:black;stroke-width:1.5" />
<line x1="750.000" y1="540.000" x2="720.000" y2="540.000" style="stroke:black;stroke-width:1.5" />
<line x1="720.000" y1="540.000" x2="690.000" y2="540.000" style="stroke:black;stroke-width:1.5" />
<line x1="690.000" y1="540.000" x2="690.000" y2="570.000" style="stroke:black;stroke-width:1.5" />
<line x1="690.000" y1="570.000" x2="720.000" y2="570.000" style="stroke:black;stroke-width:1.5" />
<line x1="720.000" y1="570.000" x2="720.000" y2="600.000" style="stroke:black;stroke-width:1.5" />
<line x1="720.000" y1="600.000" x2="690.000" y2="600.000" style="stroke:black;stroke-width:1.5" />
<line x1="690.000" y1="600.000" x2="690.000" y2="630.000" style="stroke:black;stroke-width:1.5" />
<line x1="690.000" y1="630.000" x2="660.000" y2="630.000" style="stroke:black;stroke-width:1.5" />
<line x1="660.000" y1="630.000" x2="660.000" y2="600.000" style="stroke:black;stroke-width:1.5" />
<line x1="660.000" y1="600.000" x2="660.000" y2="570.000" style="stroke:black;stroke-width:1.5" />
<line x1="660.000" y1="570.000" x2="630.000" y2="570.000" style="stroke:black;stroke-width:1.5" />
<line x1="630.000" y1="570.000" x2="630.000" y2="600.000" style="stroke:black;stroke-width:1.5" />
<line x1="630.000" y1="600.000" x2="600.000" y2="600.000" style="stroke:black;stroke-width:1.5" />
</svg>